<svg xmlns="http://www.w3.org/2000/svg" width="120" height="120" viewBox="0 0 120 120">
  <g id="Groupe_99" data-name="Groupe 99" transform="translate(-295.231 -84.184)">
    <path id="Icon_awesome-user-circle" data-name="Icon awesome-user-circle" d="M60,.563a60,60,0,1,0,60,60A59.99,59.99,0,0,0,60,.563Zm0,23.226a21.29,21.29,0,1,1-21.29,21.29A21.291,21.291,0,0,1,60,23.788Zm0,83.226a46.361,46.361,0,0,1-35.444-16.5A26.974,26.974,0,0,1,48.387,76.046a5.92,5.92,0,0,1,1.718.266A32.033,32.033,0,0,0,60,77.982a31.911,31.911,0,0,0,9.9-1.669,5.92,5.92,0,0,1,1.718-.266A26.974,26.974,0,0,1,95.444,90.514,46.361,46.361,0,0,1,60,107.014Z" transform="translate(295.231 83.621)" fill="#1a7106"/>
    <path id="Icon_material-add-a-photo" data-name="Icon material-add-a-photo" d="M4.5,6V1.5h3V6H12V9H7.5v4.5h-3V9H0V6ZM9,15V10.5h4.5V6H24l2.745,3H31.5a3.009,3.009,0,0,1,3,3V30a3.009,3.009,0,0,1-3,3H7.5a3.009,3.009,0,0,1-3-3V15ZM19.5,28.5A7.5,7.5,0,1,0,12,21,7.5,7.5,0,0,0,19.5,28.5ZM14.7,21a4.8,4.8,0,1,0,4.8-4.8A4.795,4.795,0,0,0,14.7,21Z" transform="translate(375.681 132.934)" fill="#ffb400"/>
  </g>
</svg>
