<svg xmlns="http://www.w3.org/2000/svg" width="490.737" height="366.112" viewBox="0 0 490.737 366.112">
  <path id="Tracé_207" data-name="Tracé 207" d="M302.583,17.561c66.652,0,157-.327,208.174,0,9.334.06,13.446,1.419,14.724-.35.677-.95,3.326-1.249,6.178,0,.56.235-1.788-1.405,0,0,5.075,3.989-2.047-1.593,0,.35,2.547,2.416-.477-1.323,0-.35.54.7,3.353,4.816,0,0-2.4-3.454-.563,2.237,0,0,.487-2.026,0-10.889,0,0,0,77.764,22.974,222.211-81.123,251.263C415.108,278.36,334.436,378,293.209,378,131.541,378,47.823,303.206,47.823,198.824c0-33.047,1.965-77.678,0-118.3-.722-14.923.137-28.7,0-41.635-.049-4.529-.225-9.1,0-13.616.129-2.691-.287-5.616,3.046-7.709,2.564-1.61,8.458-.154,12.229-.35,8.435-.443-24.92.23-15.275,0,20.527-.49-21.113-1.15,3.046,0C100.542,19.574,258.289,17.561,302.583,17.561Z" transform="translate(-43.076 -11.888)" fill="#ffb400"/>
</svg>
