<svg xmlns="http://www.w3.org/2000/svg" width="32" height="24" viewBox="0 0 32 24">
  <g id="Icon_ionic-ios-home" data-name="Icon ionic-ios-home" transform="translate(-3.374 -3.375)">
    <path id="Tracé_215" data-name="Tracé 215" d="M19.567,7.306a.412.412,0,0,0-.394,0l-12.3,6.959a.218.218,0,0,0-.118.173V27.263c0,.061.071.112.158.112h8.519c.087,0,.158-.05.158-.112V19.457c0-.061.071-.112.158-.112H23c.087,0,.158.05.158.112v7.807c0,.061.071.112.158.112h8.519c.087,0,.158-.05.158-.112V14.438a.21.21,0,0,0-.118-.173Z" transform="translate(0)" fill="#1a7106"/>
    <path id="Tracé_216" data-name="Tracé 216" d="M34.957,14.358,20.423,3.713a1.813,1.813,0,0,0-2.107,0l-6.329,4.7V5.449a.148.148,0,0,0-.154-.141H7.22a.148.148,0,0,0-.154.141v6.483L3.783,14.4a.968.968,0,0,0-.408.717.95.95,0,0,0,.315.752,1.122,1.122,0,0,0,.761.288,1.149,1.149,0,0,0,.677-.218L19.27,5.534a.147.147,0,0,1,.1-.028.2.2,0,0,1,.1.028L33.611,15.9a1.149,1.149,0,0,0,.677.218,1.117,1.117,0,0,0,.761-.288.933.933,0,0,0,.323-.752A.977.977,0,0,0,34.957,14.358Z" fill="#1a7106"/>
  </g>
</svg>
